<?xml version="1.0" encoding="UTF-8" standalone="no"?><!DOCTYPE svg PUBLIC "-//W3C//DTD SVG 1.1//EN" "http://www.w3.org/Graphics/SVG/1.1/DTD/svg11.dtd"><svg width="100%" height="100%" viewBox="0 0 1000 1000" version="1.1" xmlns="http://www.w3.org/2000/svg" xmlns:xlink="http://www.w3.org/1999/xlink" xml:space="preserve" xmlns:serif="http://www.serif.com/" style="fill-rule:evenodd;clip-rule:evenodd;stroke-linecap:round;stroke-linejoin:round;stroke-miterlimit:1.5;"><path d="M556.748,487.194l56.021,-52.17l53.395,32.388" style="fill:none;stroke:#000;stroke-width:2.08px;"/><path d="M559.772,510.381l50.082,-32.881l57.503,50.171" style="fill:none;stroke:#000;stroke-width:2.08px;"/><path d="M558.673,499.204l54.57,-43.067l56.496,40.791" style="fill:none;"/><clipPath id="_clip1"><path d="M558.673,499.204l54.57,-43.067l56.496,40.791"/></clipPath><g clip-path="url(#_clip1)"><g id="Layer1"></g></g><path d="M558.673,499.204l54.57,-43.067l56.496,40.791" style="fill:none;stroke:#000;stroke-width:2.08px;"/><path d="M556.998,519.576l43.814,-21.375l59.938,60.374" style="fill:none;"/><clipPath id="_clip2"><path d="M556.998,519.576l43.814,-21.375l59.938,60.374"/></clipPath><g clip-path="url(#_clip2)"><g id="Layer11" serif:id="Layer1"></g></g><path d="M556.998,519.576l43.814,-21.375l59.938,60.374" style="fill:none;stroke:#000;stroke-width:2.08px;"/><path d="M558.673,493.497l54.647,-48.514l54.493,36.4" style="fill:none;"/><clipPath id="_clip3"><path d="M558.673,493.497l54.647,-48.514l54.493,36.4"/></clipPath><g clip-path="url(#_clip3)"><g id="Layer12" serif:id="Layer1"></g></g><path d="M558.673,493.497l54.647,-48.514l54.493,36.4" style="fill:none;stroke:#000;stroke-width:2.08px;"/><path d="M558.074,515.392l47.924,-27.718l58.194,55.798" style="fill:none;"/><clipPath id="_clip4"><path d="M558.074,515.392l47.924,-27.718l58.194,55.798"/></clipPath><g clip-path="url(#_clip4)"><g id="Layer13" serif:id="Layer1"></g></g><path d="M558.074,515.392l47.924,-27.718l58.194,55.798" style="fill:none;stroke:#000;stroke-width:2.08px;"/><path d="M559.772,505.028l51.684,-37.327l58.283,45.364" style="fill:none;"/><clipPath id="_clip5"><path d="M559.772,505.028l51.684,-37.327l58.283,45.364"/></clipPath><g clip-path="url(#_clip5)"><g id="Layer14" serif:id="Layer1"></g></g><path d="M559.772,505.028l51.684,-37.327l58.283,45.364" style="fill:none;stroke:#000;stroke-width:2.08px;"/><path d="M555.318,524.145l39.853,-17.607c-0,0 42.44,47.183 58.552,66.069" style="fill:none;"/><clipPath id="_clip6"><path d="M555.318,524.145l39.853,-17.607c-0,0 42.44,47.183 58.552,66.069"/></clipPath><g clip-path="url(#_clip6)"><g id="Layer15" serif:id="Layer1"></g></g><path d="M555.318,524.145l39.853,-17.607c-0,0 42.44,47.183 58.552,66.069" style="fill:none;stroke:#000;stroke-width:2.08px;"/><path d="M554.072,527.543l34.621,-11.386l56.981,71.49" style="fill:none;stroke:#000;stroke-width:2.08px;"/><path d="M549.724,534.063l22.301,-2.507l51.678,79.893" style="fill:none;"/><clipPath id="_clip7"><path d="M549.724,534.063l22.301,-2.507l51.678,79.893"/></clipPath><g clip-path="url(#_clip7)"><g id="Layer16" serif:id="Layer1"></g></g><path d="M549.724,534.063l22.301,-2.507l51.678,79.893" style="fill:none;stroke:#000;stroke-width:2.08px;"/><path d="M551.965,530.709l28.652,-6.05l54.27,75.968" style="fill:none;"/><clipPath id="_clip8"><path d="M551.965,530.709l28.652,-6.05l54.27,75.968"/></clipPath><g clip-path="url(#_clip8)"><g id="Layer17" serif:id="Layer1"></g></g><path d="M551.965,530.709l28.652,-6.05l54.27,75.968" style="fill:none;stroke:#000;stroke-width:2.08px;"/><path d="M504.688,552.53l15.026,74.782l-55.358,29.62" style="fill:none;stroke:#000;stroke-width:2.08px;"/><path d="M451.019,652.051l59.158,-29.472l-13.337,-71.85" style="fill:none;stroke:#000;stroke-width:2.08px;"/><path d="M490.314,548.434l10.183,68.48l-63.174,28.826" style="fill:none;stroke:#000;stroke-width:2.08px;"/><path d="M423.268,637.637l68.767,-26.961l-6.74,-65.11" style="fill:none;stroke:#000;stroke-width:2.08px;"/><path d="M480.598,543.056l3.191,59.875l-72.568,25.815" style="fill:none;stroke:#000;stroke-width:2.08px;"/><path d="M399.175,617.99l78.017,-23.09l-0.143,-55.501" style="fill:none;stroke:#000;stroke-width:2.08px;"/><path d="M473.822,535.885l-3.227,49.048l-82.463,21.584" style="fill:none;stroke:#000;stroke-width:2.08px;"/><path d="M378.882,594.04l86.478,-18.071l6.167,-43.167" style="fill:none;stroke:#000;stroke-width:2.08px;"/><path d="M469.089,529.934l-7.601,36.212l-91.426,12.548" style="fill:none;stroke:#000;stroke-width:2.08px;"/><path d="M363.967,564.209l94.079,-9.895l9.394,-27.536" style="fill:none;stroke:#000;stroke-width:2.08px;"/><path d="M465.791,522.763l-9.824,21.01l-95.586,4.231" style="fill:none;stroke:#000;stroke-width:2.08px;"/><path d="M464.285,518.245l-8.39,14.557l-97.378,-0.717l-6.884,-42.307" style="fill:none;stroke:#000;stroke-width:2.08px;"/><path d="M355.075,468.05l5.306,47.686l95.729,5.378l6.812,-7.243" style="fill:none;stroke:#000;stroke-width:2.08px;"/><path d="M462.922,506.7l-5.163,4.59l-93.792,-11.187l-3.586,-50.481" style="fill:none;stroke:#000;stroke-width:2.08px;"/><path d="M366.548,436.212l3.514,49.837l90.064,15.202l2.796,-1.65" style="fill:none;stroke:#000;stroke-width:2.08px;"/><path d="M462.162,494.074l-86.002,-18.816l-2.662,-52.042" style="fill:none;stroke:#000;stroke-width:2.08px;"/><path d="M381.739,409.935l1.394,56.608l81.657,21.243" style="fill:none;stroke:#000;stroke-width:2.08px;"/><path d="M468.106,481.422l-77.354,-22.777l0.538,-60.492" style="fill:none;stroke:#000;stroke-width:2.08px;"/><path d="M400.97,387.576l-1.296,62.964l73.829,22.728" style="fill:none;stroke:#000;stroke-width:2.08px;"/><path d="M478.225,468.367l-69.779,-24.09l3.907,-65.547" style="fill:none;stroke:#000;stroke-width:2.08px;"/><path d="M424.836,369.882l-7.006,68.862l64.752,25.593" style="fill:none;stroke:#000;stroke-width:2.08px;"/><path d="M487.428,461.51l-59.5,-26.985l10.9,-72.796" style="fill:none;stroke:#000;stroke-width:2.08px;"/><path d="M452.423,355.533l-13.997,75.78l53.293,27.765" style="fill:none;stroke:#000;stroke-width:2.08px;"/><path d="M496.882,457.529l-48.302,-27.994l19.389,-78.649" style="fill:none;stroke:#000;stroke-width:2.08px;"/><path d="M483.63,347.215l-23.577,81.918l41.59,27.65" style="fill:none;stroke:#000;stroke-width:2.08px;"/><path d="M505.601,455.693l-34.304,-26.503l27.707,-83.811" style="fill:none;stroke:#000;stroke-width:2.08px;"/><path d="M516.042,345.379l-34.018,85.418l26.962,24.896" style="fill:none;stroke:#000;stroke-width:2.08px;"/><path d="M513.231,455.693l-20.193,-22.43l38.837,-86.048" style="fill:none;stroke:#000;stroke-width:2.08px;"/><path d="M547.65,351.976l-44.057,85.188l13.493,19.16" style="fill:none;stroke:#000;stroke-width:2.08px;"/><path d="M521.65,456.783l-7.664,-14.353l47.79,-83.731l41.023,15.426" style="fill:none;stroke:#000;stroke-width:2.08px;"/><path d="M619.591,387.495l-43.254,-18.586l-53.293,79.451l3.27,9.81" style="fill:none;stroke:#000;stroke-width:2.08px;"/><path d="M531.875,459.662l-0.638,-4.746l56.658,-74.952l44.929,21.49" style="fill:none;stroke:#000;stroke-width:2.08px;"/><path d="M641.756,413.539l-45.088,-21.488l-58.381,71.155" style="fill:none;stroke:#000;stroke-width:2.08px;"/><path d="M544.319,468.403l58.48,-65.918l46.463,23.266" style="fill:none;stroke:#000;stroke-width:2.08px;"/><path d="M656.641,439.867l-49.68,-27.008l-57.319,61.62" style="fill:none;stroke:#000;stroke-width:2.08px;"/><path d="M553.349,480.753l56.816,-57.14l51.758,30.441" style="fill:none;stroke:#000;stroke-width:2.08px;"/><path d="M545.863,537.544l16.754,0.548l48.203,83.567l-33.583,27.652" style="fill:none;stroke:#000;stroke-width:2.08px;"/><path d="M556.998,657.204l38.9,-28.516l-42.883,-85.672l-10.512,-2.161" style="fill:none;stroke:#000;stroke-width:2.08px;"/><path d="M536.984,545.002l6.015,1.869l37.439,86.331l-42.091,28.318" style="fill:none;stroke:#000;stroke-width:2.08px;"/><path d="M523.621,663.09l41.152,-28.033l-31.714,-85.759l-2.232,-0.917" style="fill:none;stroke:#000;stroke-width:2.08px;"/><path d="M525.683,551.172l26.778,83.724l-43.379,28.82" style="fill:none;stroke:#000;stroke-width:2.08px;"/><path d="M493.202,663.09l48.407,-29.531l-23.131,-81.402" style="fill:none;stroke:#000;stroke-width:2.08px;"/><path d="M512.259,552.578l18.175,78.525l-52.251,29.565" style="fill:none;stroke:#000;stroke-width:2.08px;"/></svg>