<?xml version="1.0" encoding="UTF-8" standalone="no"?><!DOCTYPE svg PUBLIC "-//W3C//DTD SVG 1.1//EN" "http://www.w3.org/Graphics/SVG/1.1/DTD/svg11.dtd"><svg width="100%" height="100%" viewBox="0 0 1000 1000" version="1.1" xmlns="http://www.w3.org/2000/svg" xmlns:xlink="http://www.w3.org/1999/xlink" xml:space="preserve" xmlns:serif="http://www.serif.com/" style="fill-rule:evenodd;clip-rule:evenodd;stroke-linecap:round;stroke-linejoin:round;stroke-miterlimit:1.5;"><path d="M636.47,448.585l165.979,-154.567l158.198,95.956" style="fill:none;stroke:#5a5a5a;stroke-width:1.04px;"/><path d="M645.43,517.282l148.381,-97.418l170.372,148.645" style="fill:none;stroke:#5a5a5a;stroke-width:1.04px;"/><path d="M642.176,484.167l161.679,-127.596l167.384,120.853" style="fill:none;"/><clipPath id="_clip1"><path d="M642.176,484.167l161.679,-127.596l167.384,120.853"/></clipPath><g clip-path="url(#_clip1)"><g id="Layer1"></g></g><path d="M642.176,484.167l161.679,-127.596l167.384,120.853" style="fill:none;stroke:#5a5a5a;stroke-width:1.04px;"/><path d="M637.213,544.525l129.811,-63.329l177.582,178.874" style="fill:none;"/><clipPath id="_clip2"><path d="M637.213,544.525l129.811,-63.329l177.582,178.874"/></clipPath><g clip-path="url(#_clip2)"><g id="Layer11" serif:id="Layer1"></g></g><path d="M637.213,544.525l129.811,-63.329l177.582,178.874" style="fill:none;stroke:#5a5a5a;stroke-width:1.04px;"/><path d="M642.176,467.258l161.905,-143.736l161.453,107.845" style="fill:none;"/><clipPath id="_clip3"><path d="M642.176,467.258l161.905,-143.736l161.453,107.845"/></clipPath><g clip-path="url(#_clip3)"><g id="Layer12" serif:id="Layer1"></g></g><path d="M642.176,467.258l161.905,-143.736l161.453,107.845" style="fill:none;stroke:#5a5a5a;stroke-width:1.04px;"/><path d="M640.4,532.13l141.987,-82.124l172.417,165.319" style="fill:none;"/><clipPath id="_clip4"><path d="M640.4,532.13l141.987,-82.124l172.417,165.319"/></clipPath><g clip-path="url(#_clip4)"><g id="Layer13" serif:id="Layer1"></g></g><path d="M640.4,532.13l141.987,-82.124l172.417,165.319" style="fill:none;stroke:#5a5a5a;stroke-width:1.04px;"/><path d="M645.43,501.422l153.129,-110.59l172.68,134.402" style="fill:none;"/><clipPath id="_clip5"><path d="M645.43,501.422l153.129,-110.59l172.68,134.402"/></clipPath><g clip-path="url(#_clip5)"><g id="Layer14" serif:id="Layer1"></g></g><path d="M645.43,501.422l153.129,-110.59l172.68,134.402" style="fill:none;stroke:#5a5a5a;stroke-width:1.04px;"/><path d="M632.234,558.062l118.075,-52.165c-0,-0 125.743,139.793 173.477,195.747" style="fill:none;"/><clipPath id="_clip6"><path d="M632.234,558.062l118.075,-52.165c-0,-0 125.743,139.793 173.477,195.747"/></clipPath><g clip-path="url(#_clip6)"><g id="Layer15" serif:id="Layer1"></g></g><path d="M632.234,558.062l118.075,-52.165c-0,-0 125.743,139.793 173.477,195.747" style="fill:none;stroke:#5a5a5a;stroke-width:1.04px;"/><path d="M628.544,568.131l102.575,-33.735l168.82,211.809" style="fill:none;stroke:#5a5a5a;stroke-width:1.04px;"/><path d="M615.66,587.447l66.075,-7.428l153.11,236.706" style="fill:none;"/><clipPath id="_clip7"><path d="M615.66,587.447l66.075,-7.428l153.11,236.706"/></clipPath><g clip-path="url(#_clip7)"><g id="Layer16" serif:id="Layer1"></g></g><path d="M615.66,587.447l66.075,-7.428l153.11,236.706" style="fill:none;stroke:#5a5a5a;stroke-width:1.04px;"/><path d="M622.299,577.509l84.891,-17.924l160.789,225.077" style="fill:none;"/><clipPath id="_clip8"><path d="M622.299,577.509l84.891,-17.924l160.789,225.077"/></clipPath><g clip-path="url(#_clip8)"><g id="Layer17" serif:id="Layer1"></g></g><path d="M622.299,577.509l84.891,-17.924l160.789,225.077" style="fill:none;stroke:#5a5a5a;stroke-width:1.04px;"/><path d="M482.228,642.161l44.52,221.561l-164.013,87.758" style="fill:none;stroke:#5a5a5a;stroke-width:1.04px;"/><path d="M323.219,937.018l175.273,-87.318l-39.516,-212.876" style="fill:none;stroke:#5a5a5a;stroke-width:1.04px;"/><path d="M439.643,630.025l30.168,202.892l-187.17,85.405" style="fill:none;stroke:#5a5a5a;stroke-width:1.04px;"/><path d="M241.001,894.315l203.741,-79.882l-19.971,-192.906" style="fill:none;stroke:#5a5a5a;stroke-width:1.04px;"/><path d="M410.856,614.091l9.454,177.398l-215.001,76.482" style="fill:none;stroke:#5a5a5a;stroke-width:1.04px;"/><path d="M169.617,836.104l231.147,-68.41l-0.425,-164.438" style="fill:none;stroke:#5a5a5a;stroke-width:1.04px;"/><path d="M390.779,592.846l-9.56,145.317l-244.32,63.948" style="fill:none;stroke:#5a5a5a;stroke-width:1.04px;"/><path d="M109.493,765.145l256.217,-53.538l18.271,-127.896" style="fill:none;stroke:#5a5a5a;stroke-width:1.04px;"/><path d="M376.757,575.212l-22.52,107.289l-270.876,37.179" style="fill:none;stroke:#5a5a5a;stroke-width:1.04px;"/><path d="M65.303,676.765l278.737,-29.319l27.831,-81.581" style="fill:none;stroke:#5a5a5a;stroke-width:1.04px;"/><path d="M366.984,553.967l-29.105,62.249l-283.199,12.534" style="fill:none;stroke:#5a5a5a;stroke-width:1.04px;"/><path d="M362.523,540.583l-24.857,43.128l-288.51,-2.125l-20.395,-125.347" style="fill:none;stroke:#5a5a5a;stroke-width:1.04px;"/><path d="M38.959,391.866l15.721,141.281l283.623,15.934l20.183,-21.458" style="fill:none;stroke:#5a5a5a;stroke-width:1.04px;"/><path d="M358.486,506.378l-15.296,13.597l-277.887,-33.143l-10.623,-149.566" style="fill:none;stroke:#5a5a5a;stroke-width:1.04px;"/><path d="M72.951,297.538l10.41,147.654l266.84,45.04l8.285,-4.887" style="fill:none;stroke:#5a5a5a;stroke-width:1.04px;"/><path d="M356.234,468.97l-254.806,-55.748l-7.886,-154.189" style="fill:none;stroke:#5a5a5a;stroke-width:1.04px;"/><path d="M117.957,219.683l4.132,167.718l241.93,62.939" style="fill:none;stroke:#5a5a5a;stroke-width:1.04px;"/><path d="M373.845,431.485l-229.183,-67.484l1.594,-179.226" style="fill:none;stroke:#5a5a5a;stroke-width:1.04px;"/><path d="M174.937,153.439l-3.841,186.549l218.74,67.337" style="fill:none;stroke:#5a5a5a;stroke-width:1.04px;"/><path d="M403.824,392.806l-206.738,-71.374l11.576,-194.202" style="fill:none;stroke:#5a5a5a;stroke-width:1.04px;"/><path d="M245.646,101.015l-20.758,204.023l191.845,75.827" style="fill:none;stroke:#5a5a5a;stroke-width:1.04px;"/><path d="M431.091,372.489l-176.284,-79.949l32.293,-215.681" style="fill:none;stroke:#5a5a5a;stroke-width:1.04px;"/><path d="M327.381,58.503l-41.471,224.519l157.894,82.261" style="fill:none;stroke:#5a5a5a;stroke-width:1.04px;"/><path d="M459.101,360.694l-143.108,-82.941l57.447,-233.017" style="fill:none;stroke:#5a5a5a;stroke-width:1.04px;"/><path d="M419.84,33.858l-69.855,242.705l123.223,81.922" style="fill:none;stroke:#5a5a5a;stroke-width:1.04px;"/><path d="M484.935,355.255l-101.637,-78.522l82.091,-248.313" style="fill:none;stroke:#5a5a5a;stroke-width:1.04px;"/><path d="M515.868,28.42l-100.787,253.072l79.882,73.763" style="fill:none;stroke:#5a5a5a;stroke-width:1.04px;"/><path d="M507.54,355.255l-59.827,-66.455l115.064,-254.942" style="fill:none;stroke:#5a5a5a;stroke-width:1.04px;"/><path d="M609.517,47.965l-130.531,252.393l39.975,56.767" style="fill:none;stroke:#5a5a5a;stroke-width:1.04px;"/><path d="M532.483,358.485l-22.707,-42.526l141.593,-248.078l121.542,45.705" style="fill:none;stroke:#5a5a5a;stroke-width:1.04px;"/><path d="M822.66,153.2l-128.151,-55.068l-157.894,235.397l9.687,29.063" style="fill:none;stroke:#5a5a5a;stroke-width:1.04px;"/><path d="M562.777,367.015l-1.889,-14.063l167.865,-222.066l133.114,63.671" style="fill:none;stroke:#5a5a5a;stroke-width:1.04px;"/><path d="M888.331,230.362l-133.585,-63.665l-172.97,210.816" style="fill:none;stroke:#5a5a5a;stroke-width:1.04px;"/><path d="M599.646,392.91l173.265,-195.299l137.659,68.931" style="fill:none;stroke:#5a5a5a;stroke-width:1.04px;"/><path d="M932.431,308.364l-147.189,-80.016l-169.825,182.565" style="fill:none;stroke:#5a5a5a;stroke-width:1.04px;"/><path d="M626.4,429.501l168.335,-169.293l153.346,90.191" style="fill:none;stroke:#5a5a5a;stroke-width:1.04px;"/><path d="M604.223,597.762l49.638,1.622l142.813,247.591l-99.498,81.925" style="fill:none;stroke:#5a5a5a;stroke-width:1.04px;"/><path d="M637.213,952.287l115.252,-84.488l-127.053,-253.825l-31.146,-6.402" style="fill:none;stroke:#5a5a5a;stroke-width:1.04px;"/><path d="M577.915,619.857l17.822,5.537l110.922,255.78l-124.705,83.9" style="fill:none;stroke:#5a5a5a;stroke-width:1.04px;"/><path d="M538.322,969.725l121.925,-83.055l-93.96,-254.085l-6.615,-2.717" style="fill:none;stroke:#5a5a5a;stroke-width:1.04px;"/><path d="M544.434,638.137l79.336,248.057l-128.523,85.386" style="fill:none;stroke:#5a5a5a;stroke-width:1.04px;"/><path d="M448.2,969.725l143.417,-87.493l-68.532,-241.177" style="fill:none;stroke:#5a5a5a;stroke-width:1.04px;"/><path d="M504.66,642.302l53.85,232.653l-154.808,87.596" style="fill:none;stroke:#5a5a5a;stroke-width:1.04px;"/></svg>