<?xml version="1.0" encoding="UTF-8" standalone="no"?><!DOCTYPE svg PUBLIC "-//W3C//DTD SVG 1.1//EN" "http://www.w3.org/Graphics/SVG/1.1/DTD/svg11.dtd"><svg width="100%" height="100%" viewBox="0 0 1000 1000" version="1.1" xmlns="http://www.w3.org/2000/svg" xmlns:xlink="http://www.w3.org/1999/xlink" xml:space="preserve" xmlns:serif="http://www.serif.com/" style="fill-rule:evenodd;clip-rule:evenodd;stroke-linecap:round;stroke-linejoin:round;stroke-miterlimit:1.5;"><path d="M546.062,482.646l56.021,-52.169l53.395,32.387" style="fill:none;stroke:#5a5a5a;stroke-width:1.04px;"/><path d="M549.086,505.833l50.082,-32.881l57.503,50.171" style="fill:none;stroke:#5a5a5a;stroke-width:1.04px;"/><path d="M547.987,494.656l54.57,-43.066l56.496,40.79" style="fill:none;"/><clipPath id="_clip1"><path d="M547.987,494.656l54.57,-43.066l56.496,40.79"/></clipPath><g clip-path="url(#_clip1)"><g id="Layer1"></g></g><path d="M547.987,494.656l54.57,-43.066l56.496,40.79" style="fill:none;stroke:#5a5a5a;stroke-width:1.04px;"/><path d="M546.312,515.028l43.814,-21.375l59.938,60.374" style="fill:none;"/><clipPath id="_clip2"><path d="M546.312,515.028l43.814,-21.375l59.938,60.374"/></clipPath><g clip-path="url(#_clip2)"><g id="Layer11" serif:id="Layer1"></g></g><path d="M546.312,515.028l43.814,-21.375l59.938,60.374" style="fill:none;stroke:#5a5a5a;stroke-width:1.04px;"/><path d="M547.987,488.949l54.647,-48.514l54.493,36.4" style="fill:none;"/><clipPath id="_clip3"><path d="M547.987,488.949l54.647,-48.514l54.493,36.4"/></clipPath><g clip-path="url(#_clip3)"><g id="Layer12" serif:id="Layer1"></g></g><path d="M547.987,488.949l54.647,-48.514l54.493,36.4" style="fill:none;stroke:#5a5a5a;stroke-width:1.04px;"/><path d="M547.388,510.845l47.924,-27.719l58.194,55.798" style="fill:none;"/><clipPath id="_clip4"><path d="M547.388,510.845l47.924,-27.719l58.194,55.798"/></clipPath><g clip-path="url(#_clip4)"><g id="Layer13" serif:id="Layer1"></g></g><path d="M547.388,510.845l47.924,-27.719l58.194,55.798" style="fill:none;stroke:#5a5a5a;stroke-width:1.04px;"/><path d="M549.086,500.48l51.684,-37.326l58.283,45.363" style="fill:none;"/><clipPath id="_clip5"><path d="M549.086,500.48l51.684,-37.326l58.283,45.363"/></clipPath><g clip-path="url(#_clip5)"><g id="Layer14" serif:id="Layer1"></g></g><path d="M549.086,500.48l51.684,-37.326l58.283,45.363" style="fill:none;stroke:#5a5a5a;stroke-width:1.04px;"/><path d="M544.632,519.597l39.853,-17.607c-0,0 42.44,47.183 58.552,66.069" style="fill:none;"/><clipPath id="_clip6"><path d="M544.632,519.597l39.853,-17.607c-0,0 42.44,47.183 58.552,66.069"/></clipPath><g clip-path="url(#_clip6)"><g id="Layer15" serif:id="Layer1"></g></g><path d="M544.632,519.597l39.853,-17.607c-0,0 42.44,47.183 58.552,66.069" style="fill:none;stroke:#5a5a5a;stroke-width:1.04px;"/><path d="M543.386,522.996l34.621,-11.387l56.981,71.49" style="fill:none;stroke:#5a5a5a;stroke-width:1.04px;"/><path d="M539.038,529.515l22.301,-2.507l51.678,79.893" style="fill:none;"/><clipPath id="_clip7"><path d="M539.038,529.515l22.301,-2.507l51.678,79.893"/></clipPath><g clip-path="url(#_clip7)"><g id="Layer16" serif:id="Layer1"></g></g><path d="M539.038,529.515l22.301,-2.507l51.678,79.893" style="fill:none;stroke:#5a5a5a;stroke-width:1.04px;"/><path d="M541.278,526.161l28.653,-6.05l54.27,75.968" style="fill:none;"/><clipPath id="_clip8"><path d="M541.278,526.161l28.653,-6.05l54.27,75.968"/></clipPath><g clip-path="url(#_clip8)"><g id="Layer17" serif:id="Layer1"></g></g><path d="M541.278,526.161l28.653,-6.05l54.27,75.968" style="fill:none;stroke:#5a5a5a;stroke-width:1.04px;"/><path d="M494.002,547.982l15.026,74.782l-55.358,29.62" style="fill:none;stroke:#5a5a5a;stroke-width:1.04px;"/><path d="M440.333,647.503l59.158,-29.472l-13.337,-71.85" style="fill:none;stroke:#5a5a5a;stroke-width:1.04px;"/><path d="M479.628,543.886l10.183,68.48l-63.174,28.827" style="fill:none;stroke:#5a5a5a;stroke-width:1.04px;"/><path d="M412.582,633.09l68.767,-26.962l-6.74,-65.11" style="fill:none;stroke:#5a5a5a;stroke-width:1.04px;"/><path d="M469.912,538.508l3.191,59.876l-72.568,25.814" style="fill:none;stroke:#5a5a5a;stroke-width:1.04px;"/><path d="M388.489,613.442l78.017,-23.09l-0.144,-55.501" style="fill:none;stroke:#5a5a5a;stroke-width:1.04px;"/><path d="M463.136,531.337l-3.227,49.048l-82.463,21.584" style="fill:none;stroke:#5a5a5a;stroke-width:1.04px;"/><path d="M368.196,589.492l86.478,-18.07l6.167,-43.168" style="fill:none;stroke:#5a5a5a;stroke-width:1.04px;"/><path d="M458.403,525.386l-7.601,36.212l-91.426,12.549" style="fill:none;stroke:#5a5a5a;stroke-width:1.04px;"/><path d="M353.28,559.662l94.08,-9.896l9.394,-27.535" style="fill:none;stroke:#5a5a5a;stroke-width:1.04px;"/><path d="M455.104,518.215l-9.823,21.01l-95.586,4.231" style="fill:none;stroke:#5a5a5a;stroke-width:1.04px;"/><path d="M453.599,513.698l-8.39,14.556l-97.378,-0.717l-6.884,-42.307" style="fill:none;stroke:#5a5a5a;stroke-width:1.04px;"/><path d="M344.389,463.503l5.306,47.685l95.729,5.378l6.812,-7.243" style="fill:none;stroke:#5a5a5a;stroke-width:1.04px;"/><path d="M452.236,502.153l-5.163,4.589l-93.793,-11.186l-3.585,-50.482" style="fill:none;stroke:#5a5a5a;stroke-width:1.04px;"/><path d="M355.862,431.665l3.514,49.836l90.064,15.202l2.796,-1.649" style="fill:none;stroke:#5a5a5a;stroke-width:1.04px;"/><path d="M451.476,489.527l-86.003,-18.816l-2.661,-52.042" style="fill:none;stroke:#5a5a5a;stroke-width:1.04px;"/><path d="M371.052,405.387l1.395,56.609l81.657,21.243" style="fill:none;stroke:#5a5a5a;stroke-width:1.04px;"/><path d="M457.42,476.875l-77.354,-22.777l0.538,-60.493" style="fill:none;stroke:#5a5a5a;stroke-width:1.04px;"/><path d="M390.284,383.028l-1.296,62.965l73.829,22.727" style="fill:none;stroke:#5a5a5a;stroke-width:1.04px;"/><path d="M467.539,463.82l-69.779,-24.091l3.907,-65.547" style="fill:none;stroke:#5a5a5a;stroke-width:1.04px;"/><path d="M414.15,365.334l-7.006,68.862l64.752,25.593" style="fill:none;stroke:#5a5a5a;stroke-width:1.04px;"/><path d="M476.742,456.962l-59.5,-26.984l10.9,-72.797" style="fill:none;stroke:#5a5a5a;stroke-width:1.04px;"/><path d="M441.737,350.985l-13.997,75.78l53.293,27.765" style="fill:none;stroke:#5a5a5a;stroke-width:1.04px;"/><path d="M486.196,452.981l-48.302,-27.994l19.389,-78.648" style="fill:none;stroke:#5a5a5a;stroke-width:1.04px;"/><path d="M472.944,342.667l-23.577,81.918l41.59,27.651" style="fill:none;stroke:#5a5a5a;stroke-width:1.04px;"/><path d="M494.915,451.146l-34.304,-26.503l27.707,-83.811" style="fill:none;stroke:#5a5a5a;stroke-width:1.04px;"/><path d="M505.356,340.832l-34.018,85.417l26.962,24.897" style="fill:none;stroke:#5a5a5a;stroke-width:1.04px;"/><path d="M502.545,451.146l-20.193,-22.43l38.837,-86.049" style="fill:none;stroke:#5a5a5a;stroke-width:1.04px;"/><path d="M536.964,347.429l-44.057,85.188l13.493,19.16" style="fill:none;stroke:#5a5a5a;stroke-width:1.04px;"/><path d="M510.964,452.236l-7.664,-14.354l47.79,-83.731l41.023,15.426" style="fill:none;stroke:#5a5a5a;stroke-width:1.04px;"/><path d="M608.904,382.948l-43.253,-18.587l-53.293,79.451l3.27,9.81" style="fill:none;stroke:#5a5a5a;stroke-width:1.04px;"/><path d="M521.189,455.115l-0.638,-4.747l56.658,-74.952l44.929,21.49" style="fill:none;stroke:#5a5a5a;stroke-width:1.04px;"/><path d="M631.07,408.991l-45.088,-21.488l-58.381,71.155" style="fill:none;stroke:#5a5a5a;stroke-width:1.04px;"/><path d="M533.633,463.855l58.48,-65.918l46.463,23.266" style="fill:none;stroke:#5a5a5a;stroke-width:1.04px;"/><path d="M645.955,435.319l-49.68,-27.007l-57.319,61.619" style="fill:none;stroke:#5a5a5a;stroke-width:1.04px;"/><path d="M542.663,476.205l56.816,-57.14l51.758,30.442" style="fill:none;stroke:#5a5a5a;stroke-width:1.04px;"/><path d="M535.177,532.997l16.754,0.547l48.203,83.567l-33.583,27.652" style="fill:none;stroke:#5a5a5a;stroke-width:1.04px;"/><path d="M546.312,652.656l38.9,-28.516l-42.883,-85.671l-10.512,-2.161" style="fill:none;stroke:#5a5a5a;stroke-width:1.04px;"/><path d="M526.298,540.454l6.015,1.869l37.439,86.331l-42.091,28.318" style="fill:none;stroke:#5a5a5a;stroke-width:1.04px;"/><path d="M512.935,658.542l41.152,-28.033l-31.714,-85.759l-2.233,-0.917" style="fill:none;stroke:#5a5a5a;stroke-width:1.04px;"/><path d="M514.997,546.624l26.778,83.725l-43.379,28.819" style="fill:none;stroke:#5a5a5a;stroke-width:1.04px;"/><path d="M482.516,658.542l48.407,-29.53l-23.131,-81.403" style="fill:none;stroke:#5a5a5a;stroke-width:1.04px;"/><path d="M501.573,548.03l18.175,78.525l-52.251,29.566" style="fill:none;stroke:#5a5a5a;stroke-width:1.04px;"/></svg>